{"title":"The.Amazing.Race.Canada.S05E01.HDTV.x264-CBM.mp4","magnet":"magnet:?xt=urn:btih:b86c59065f768f51cc8aded72d5cb43722431679&dn=The.Amazing.Race.Canada.S05E01.HDTV.x264-CBM.mp4&tr=udp%3A%2F%2Ftracker.leechers-paradise.org%3A6969&tr=udp%3A%2F%2Fzer0day.ch%3A1337&tr=udp%3A%2F%2Fopen.demonii.com%3A1337&tr=udp%3A%2F%2Ftracker.coppersurfer.tk%3A6969&tr=udp%3A%2F%2Fexodus.desync.com%3A6969","uploader":"dzony95","categoryP":"video","categoryS":"tv_shows","size":"612905402","seeders":"0","leechers":"13","description":"Uploaded only because existing torrent is very poor qualty\r\n\r\nFormat                      : MPEG-4\r\nFormat profile              : Base Media\r\nCodec ID                    : isom\r\nFile size                   : 585 MiB\r\nDuration                    : 43mn 19s\r\nOverall bit rate mode       : Variable\r\nOverall bit rate            : 1 886 Kbps\r\n\r\nVideo\r\nID                          : 1\r\nFormat                      : AVC\r\nFormat/Info                 : Advanced Video Codec\r\nFormat profile              : <a class=\"__cf_email__\" href=\"/cdn-cgi/l/email-protection\" data-cfemail=\"357d5c525d757906\">[email&#xA0;protected]</a><script data-cfhash=\"f9e31\" type=\"text/javascript\">/* <![CDATA[ */!function(t,e,r,n,c,a,p){try{t=document.currentScript||function(){for(t=document.getElementsByTagName('script'),e=t.length;e--;)if(t[e].getAttribute('data-cfhash'))return t[e]}();if(t&&(c=t.previousSibling)){p=t.parentNode;if(a=c.getAttribute('data-cfemail')){for(e='',r='0x'+a.substr(0,2)|0,n=2;a.length-n;n+=2)e+='%'+('0'+('0x'+a.substr(n,2)^r).toString(16)).slice(-2);p.replaceChild(document.createTextNode(decodeURIComponent(e)),c)}p.removeChild(t)}}catch(u){}}()/* ]]> */</script>\r\nFormat settings, CABAC      : Yes\r\nFormat settings, ReFrames   : 5 frames\r\nCodec ID                    : avc1\r\nCodec ID/Info               : Advanced Video Coding\r\nDuration                    : 43mn 19s\r\nBit rate                    : 1 754 Kbps\r\nMaximum bit rate            : 6 231 Kbps\r\nWidth                       : 720 pixels\r\nHeight                      : 404 pixels\r\nDisplay aspect ratio        : 16:9\r\nFrame rate mode             : Constant\r\nFrame rate                  : 29.970 fps\r\nColor space                 : YUV\r\nChroma subsampling          : 4:2:0\r\nBit depth                   : 8 bits\r\nScan type                   : Progressive\r\nBits/(Pixel*Frame)          : 0.201\r\nStream size                 : 543 MiB (93%)\r\n\r\n\r\nAudio\r\nID                          : 2\r\nFormat                      : AAC\r\nFormat/Info                 : Advanced Audio Codec\r\nFormat profile              : LC\r\nCodec ID                    : 40\r\nDuration                    : 43mn 19s\r\nBit rate mode               : Variable\r\nBit rate                    : 128 Kbps\r\nMaximum bit rate            : 143 Kbps\r\nChannel(s)                  : 2 channels\r\nChannel positions           : Front: L R\r\nSampling rate               : 48.0 KHz\r\nCompression mode            : Lossy\r\nStream size                 : 39.7 MiB (7%)","last_updated":"2017-07-07T12:01:47.247Z","parsed":{"xt":"urn:btih:b86c59065f768f51cc8aded72d5cb43722431679","dn":"The.Amazing.Race.Canada.S05E01.HDTV.x264-CBM.mp4","tr":["udp://exodus.desync.com:6969","udp://open.demonii.com:1337","udp://tracker.coppersurfer.tk:6969","udp://tracker.leechers-paradise.org:6969","udp://zer0day.ch:1337"],"infoHash":"b86c59065f768f51cc8aded72d5cb43722431679","infoHashBuffer":{"type":"Buffer","data":[184,108,89,6,95,118,143,81,204,138,222,215,45,92,180,55,34,67,22,121]},"name":"The.Amazing.Race.Canada.S05E01.HDTV.x264-CBM.mp4","announce":["udp://exodus.desync.com:6969","udp://open.demonii.com:1337","udp://tracker.coppersurfer.tk:6969","udp://tracker.leechers-paradise.org:6969","udp://zer0day.ch:1337"],"urlList":[]}}